<?xml version="1.0" encoding="UTF-8"?>
<svg id="Layer_2" data-name="Layer 2" xmlns="http://www.w3.org/2000/svg" viewBox="0 0 1040.64 327.64">
  <defs>
    <style>
      .cls-1 {
        fill: #fff;
      }
    </style>
  </defs>
  <g id="Layer_1-2" data-name="Layer 1">
    <g>
      <path class="cls-1" d="M507.63,44.57c-15.75,17.03,2.12,35.5,17.26,43.88,35.38,19.59,88.72,31.17,83.77,85.34-5.74,62.86-88.41,71.14-133.19,43.01-2.73-1.71-14.04-10.38-14.97-12.66-.99-2.41.47-4.68,1.38-6.76,1.13-2.6,9.87-17.64,11.43-19.57,6.58-8.11,17.2,3.56,24.01,7.12,18.33,9.6,53.2,21.13,64.01-4.63,9.61-22.91-13.78-37.51-31.12-45.8-30.2-14.44-65.31-26.16-69.34-65.96-7.17-70.79,80.19-83.68,129.19-52.76,5.38,3.39,13.17,7.19,10.45,14.51-.73,1.95-10.72,16.57-12.56,18.77-8.93,10.75-16.48-.01-25.55-4.37-16.32-7.84-40.12-15.95-54.74-.13Z"/>
      <path class="cls-1" d="M680.09,324.15c-.35,1.24-2.95,2.82-4.42,3.1-4.02.77-30.85.51-32.87-1.52l-1.43-4.16.5-218.55c2.16-4.44,15.26-2.04,19.85-2.3,3.93,1.36,5.34,14.52,8.96,13.58,27.01-28.58,72.83-20.04,92.55,12.7,34.67,57.57-20.38,127.59-83.14,98.8v98.35ZM679.04,191.77c4.11,1.62,7.7,3.75,12.07,4.84,58.7,14.69,58.46-68.61,12.2-66.09-9.34.51-22.68,10.16-24.42,19.54-.67,3.61-.96,39.95.15,41.71Z"/>
      <path class="cls-1" d="M402.42,104.72c.39-.7,4.09-4.03,5.14-4.23,3.87-.73,33.29-.22,34.33,1.43l-.44,6.14-102.13,218.59c-2.1,1.02-28.82,1.19-31.69.36-2.5-.73-5.7-4.54-4.13-7.25l46.81-99.39-53.04-112.31c-1.17-2.46-.57-5.68,1.96-6.91,2.2-1.07,28.03-1.18,32.02-.7,1.38.17,2.74.02,3.7,1.31l35.06,75.16c6.04-10.88,11.18-22.48,16.27-33.82s10.31-28.01,16.14-38.37Z"/>
      <path class="cls-1" d="M5.25,197.42l16.46-15.12c12.63,8.14,22.13,18.57,38.65,10.72,14.89-7.07,15.25-26.07,15.92-40.46,2.24-48.2-1.99-98.02.2-146.38.94-2.73,2.77-3.1,5.33-3.44,3.6-.48,31.67-.27,33.27.67,1.94,1.15,2.58,5.27,2.55,7.47-2.95,51.06,3.72,106.13-.01,156.71-4.14,56.1-66.68,86.78-109.63,49.4-9.02-7.85-11.03-10.22-2.74-19.57Z"/>
      <path class="cls-1" d="M912.68,206.59c-52.29,69.13-157.78-11.63-104.81-82.9,52.93-71.23,158.23,12.27,104.81,82.9ZM881.34,138.55c-16.74-15.41-48.08-5.86-51.87,16.76-9.45,56.38,68.5,56.83,62.35,3.46-.72-6.28-5.9-16.01-10.48-20.22Z"/>
      <path class="cls-1" d="M261.22,113.47c64.71,58.76-19.35,159-85.36,103.52-68.93-57.94,20.41-162.49,85.36-103.52ZM216.29,130.98c-39.61,2.8-39.38,61.05-4.83,66.7,49.5,8.1,49.27-69.84,4.83-66.7Z"/>
      <path class="cls-1" d="M1002.69,133.09c-1.79,1.1-1.73,2.5-1.94,4.32-1.26,10.78-1.01,36.68.02,47.72,1.93,20.76,19.45,8.11,32.47,8.25,1.17,6.53,11.21,25.23,5.84,29.97-3.6,3.18-21.31,7.58-26.65,8.42-65.56,10.35-46.12-57.39-49.19-98.69-8.1-.77-15.34,3.55-16.37-6.81-.36-3.61-.44-20.93.69-23.26,2.09-4.3,11.56-1.95,15.67-2.49,1.3-1.31-1.02-31.33.03-36.93.35-1.87,2.09-4.28,3.75-5.01,2.6-1.15,24.39-1.22,28.22-.71,1.75.23,3.25.29,4.45,1.82,3.21,4.07-.23,30.28,1.13,37.71.26,1.4.64,2.34,1.88,3.13h30.07c.22,0,2.21,1.93,2.49,2.52,1.78,3.81,1.89,26.29-2.49,30.05h-30.07Z"/>
    </g>
  </g>
</svg>