<?xml version="1.0" encoding="UTF-8"?>
<svg id="Layer_2" data-name="Layer 2" xmlns="http://www.w3.org/2000/svg" viewBox="0 0 830.63 927.56">
  <defs>
    <style>
      .cls-1 {
        fill: #e93e6c;
      }

      .cls-2 {
        fill: #2274a5;
      }
    </style>
  </defs>
  <g id="Layer_1-2" data-name="Layer 1">
    <g>
      <path class="cls-1" d="M482.51,15.61c31.63,26.83,21.49,75.35-1.15,104.66-3.66,4.74-18.28,16.04-18.24,20.3.03,3.38,3.27,5.99.62,10.08-3.23,4.98-13.78.41-18.48,5.52-4.58,15.68-15.81,31.26-17.41,47.59-4.22,43.18,31.61,62.85,13.47,113.47-3.37,9.4-9.24,18.17-11.76,28.24-1.28,5.12-1.8,21.4-5.72,23.3-3.42,1.66-7.59.05-8.06-3.96-.99-8.43.2-20.07,3.02-28.1,1.33-3.79,3.95-7.22,5.23-10.77,9.5-26.41-17.71,3.05-22.27,6.73-10.89,8.78-27.59,17.96-40.92,22.08-4.9,1.52-22.64,4.62-25.05,6.95-.85.82-1.37,2.15-1.73,3.27-.84,32.59.37,65.23-.17,97.83-.14,8.56.51,21.18-.28,28.71-.83,7.91-4.21,6.51-7.33,10.68-2.62,3.5-2.91,27.07-2.47,32.6.19,2.3.63,5.52,1.36,7.66,1.67,4.83,11.84,8.7,15.16,16.81,2.26,5.53,4.08,25.99,1.99,30.97-1.03,2.46-5.29,4.73-7.96,5.04-11.58,1.37-38.1,1-50.06.01-2.16-.18-7.25-.79-8.57-2.43-1.87-2.35-.73-24.12-.86-29.14-.33-12.46.07-24.56,0-37.01-.02-4.24-.51-17.35-1.26-20.73-.36-1.62-1.82-4.02-3.48-4.52-3.5-1.05-20.47-1.2-21.32,3.29l-.92,87.08c-.97.89-2.12,2.2-3.33,2.67-4.68,1.85-33.21,1.07-40.28.8-6.7-.26-14.41-1.34-21.23-1.77-2.22-1.05-2.81-3.64-3.13-5.87-1.34-9.3-.69-26.91,5.48-34.32,4.04-4.85,11.31-5.7,12.95-12.05,1.27-4.89,1.15-27.9.49-33.55-.83-7.12-7.69-6.92-10-13,.17-12-.3-24.03-.06-36.02.1-5.07,1.93-10.31.99-15.91-.7-4.21-7.74-11.16-10.31-15.69-16.44-29.04-9.05-79.37,11.85-104.87,3.78-4.61,18.05-14.47,17.54-19.45-.38-3.72-6.61-5.84-9.06-8.01-6.09-5.39-15.26-18.45-22.56-19.44-9.3-1.26-16.68,2.06-25.44-4.56-13.79-10.42-13.44-31.37,1.14-40.91,7.52-4.92,16.58-.65,17.88-12.12,1.6-14.09-.91-21.31,5.12-35.88,18.56-44.85,62.53-55.39,107.26-49.5,29.95,3.94,57.77,28.29,65.56,57.44,2.98,11.16,2.49,22.7,5.12,33.88,6.64,3.07,12.37,3.37,18.41,8.59,15.6,13.47,6.29,40.93-13.99,42.96-6.27.63-12.98-1.12-18.85,2.15-3.2,1.78-14.52,14.18-15.26,17.84-.81,3.99,1.43,5.07,5.11,5.12,16.45.24,45.73-12.95,56.5-25.61,8.18-9.62,9.03-21.82,20.96-28.04,3.58-1.87,7.72-1.14,9.85-5.16,2-3.79-1.51-16.34-1.82-21.73-.78-13.64.87-25.78,5.56-38.52,1.71-4.64,12.91-23.18,8.49-26.54-3.04-2.32-10.59.18-13.07-3.92-2.68-4.42,1.58-8.74-.47-13.55-.51-1.2-12.3-11.02-14.87-14.12-11.03-13.28-22.2-39.26-23.58-56.42-4.58-56.82,63.09-87.23,105.65-51.13ZM471.46,110.9c16.78-23.46,27.54-56.72,5.89-80.64-34.8-38.45-97.02-5.39-86.27,44.27,8.33,38.47,47.29,82.62,80.38,36.37ZM338.6,218.01c2.15-2.49.69-14.45,0-18-5.97-30.99-34.28-53.53-65.27-55.73-35.83-2.54-69.15,6.37-84.5,41.48-2.19,5.02-9.03,19.66.61,20.5,22.29-1.62,44.61-3.25,66.61-7.28,15.26-2.8,30.07-7.56,45.25-10.67,4.55.29,12.84,12.64,16.5,16.48,3.39,3.56,16.11,18.65,20.8,13.23ZM318.49,280.92c8.51-8.34,18.52-25.57,20.15-37.41.99-7.23-5.83-8.25-10.12-11.41-10.82-7.97-17.78-18.54-26.65-25.35-8.52-6.55-10.6-1.87-18.99.06-27.88,6.4-56.02,9.95-84.55,12.45-13.08,1.15-16.23-2.97-15.48,13.5,1.48,32.28,26.52,63.52,59.6,67.4,26.36,3.09,56.41-.02,76.04-19.24ZM162.55,239.48c-3.54.81-7.27,5.91-7.69,9.38-1.62,13.59,18.57,20.15,19.04,7.88.06-1.7-2.39-12.09-3.09-13.95-1.53-4.06-4.26-4.23-8.26-3.31ZM362.53,259.95c8.93-7.14,3.8-21.89-7.98-20.71-3.03.76-6.66,18.12-5.54,21.36,1.61,4.69,10.69,1.62,13.52-.65ZM417.09,284.98c8.06,3.41,13.13-9.82,12.79-16.17-.62-11.78-16.49-14.44-22.63-5.13s-.53,9.6,4.09,14.59c.97,1.05,5.04,6.41,5.75,6.71ZM223.09,411.02c1.11,1.22,5.37,2.32,7.2,2.3l86.53-.58,4-5c1.23-17.09-1.55-36.18-.02-53.02.9-9.94,7.32-6.48,14.42-7.58,17.64-2.73,30.93-6.55,46.3-15.7,7.49-4.46,28.74-20.21,30.9-28.16,1.13-4.18-3.64-9.69-6.57-12.5s-6.81-6.45-11.25-5.27c-3.15.84-13.75,10.36-18.08,12.93-13.48,8.01-32.49,13.74-48.18,14.82-7.37.51-21.47-1.43-27.53.46-3.72,1.16-5.72,7.79-8,10.78-15.31,19.96-38.86,21.77-57.51,4.82-10.67-9.69-9-20.26-25.45-6.56-25,20.81-38.44,80.14-14.54,105.56,3.89,4.14,13.7,4.67,16.6-.5,3.69-6.59-2.33-14.43-3.05-21.04-1.24-11.35-1.55-30.6-.9-41.91.3-5.29,2.56-8.46,8.2-7.44,7.03,4.88,3.4,14.48,3.66,22.39.09,2.84.98,5.25,1.09,7.91.22,5.22-1.09,19.67,2.21,23.3ZM242.97,314.39c-2.19,3.35,3.93,9.09,6.53,10.7,8.26,5.13,31.59,2.91,28.9-10.9l-2.07-.93c-4.95.85-31.52-1.69-33.37,1.13ZM230.55,426.48c-6.49,2.34-8,9.89-13.22,13.78-3.93,2.94-12.62,4.39-14.04,8.96l-1.48,31.56c.23,4.63,3.86,7.76,8.48,7.54,32.88-2.35,69.7,2.96,102.1,0,5.92-.54,7.96-2.54,8.5-8.5,1-10.96,1.23-36.37-.02-47.07-.29-2.44-.97-4.46-3.02-5.98l-87.29-.29ZM234.61,543.04c1.18-1.14,2.11-6.34,2.27-8.23.44-5.2.66-28.27-1.59-31.49-2.08-2.97-17.84-2.85-21.21-1.31-2.42,1.11-2.97,3.33-3.26,5.74-.47,3.97-.47,31.21.54,33.5.85,1.92,2.98,2.83,4.92,3.08,3.62.45,15.85,1.11,18.33-1.28ZM309.59,543c4.51-4.24,1.32-16.93,1.26-22.24-.06-4.75,3.6-15.11-1.6-18.4-2.33-1.47-16.59-1.68-19.67-1.06-1.63.33-3.55,4.67-3.73,6.44-.5,4.95-.65,29.91.76,33.26.3.71,1.08,1.92,1.67,2.33,2.22,1.57,19.28,1.58,21.32-.34ZM210.64,557.56c-8.7.72-16.55.6-17.79,11.2-.53,4.52-1.16,11.49,3.95,13.05,3.57,1.09,29.02,1.1,33.6.5,8.7-1.14,8.01-18.98,4.01-23.11-3.09-3.18-18.85-2.05-23.76-1.65ZM287.1,559.52c-2.35,2.5-2.87,20.5,2.68,22.3,2.83.92,32.02,1.09,35.54.42,9.09-1.73,6.07-19.11-1.47-22.48-5.82-2.61-24.98-3.33-31.44-2.43-1.13.16-4.62,1.47-5.3,2.19Z"/>
      <path class="cls-1" d="M651.26,158.85c17.87,19.83,17.83,32.92,20.69,57.81,1.3,11.32,5.28,7.5,13.13,10.87,13.79,5.9,19.36,24.03,11.17,36.66-2.74,4.22-12.94,10.07-13.45,13.64-.62,4.37,4.93,11.36,6.52,15.46,3.36,8.67,7.22,24.2,2.71,32.68-8.08,15.19-26.97-2.65-33.26,1.74-4.23,2.96,4.91,17.78,6.35,21.77,7.15,19.79,10.05,52.44,1.2,71.78-5.65,12.34-15.27,13.98-10.94,28.96,3.52,12.17,11.12,24.91,14.93,37.07,1.75,5.58,3.48,11.16-3.64,13.31-7.89,2.38-21.6-3.57-22.86,7.14-.8,6.88-.71,23.06-.03,30.07.95,9.93,12.68,11.82,16.85,22.15,2.13,5.28,3.52,25.56,2.01,30.6-1.72,5.76-20.98,3.54-26.35,3.65-7.35.16-12.56.25-19.97.05-6.83-.18-13.75.5-20.55-.45-1.18-.83-1.83-6.29-1.98-8.02-2.09-24.34,3.58-56.76-.25-79.78-.18-1.09-.37-3.33-1.42-3.77-6.52-.56-21.82-4.42-23.23,4.58v78.99s-2.28,7.22-2.28,7.22c-1.46,2.13-14.93,1.01-18.33,1.19-10.38.55-35.26,3.16-44.29.37-2.23-.69-3.67-1.44-4.14-3.86-.8-4.12-.55-22.36.06-26.89.4-2.97,2.14-6.66,3.92-9.08,6.09-8.3,13.93-5.97,15.03-18.97.4-4.77.78-26.34-.24-29.83-2.37-8.11-25.35-3.34-32.86-5.14-11.37-2.73.36-19.53,3.7-26.43,5.18-10.69,11.38-20.89,16.33-31.7,1.16-7.68-6.06-12.54-9.15-18.75-10.5-21.12-7.71-53.47.16-75.2,1.46-4.02,11.68-19.59,6.38-21.34-8.65-1.92-16.07,5.82-24.76,4.84-14.26-1.61-9.74-27.94-6.38-37.26,1.32-3.67,7.69-13.95,7.71-16.22.02-4.39-11.67-10.13-14.68-15.25-7.71-13.13-2.23-29.89,11.76-35.74,6.19-2.59,12.57-1.23,13.93-10.07,1.67-10.86-1.24-18.08,2.78-30.22,21.25-64.19,115.07-75.93,157.7-28.63ZM537.14,191.56c1.37-1.49,5.97-3.28,8.1-3.22,30.42,8.32,62.5,15.05,94.11,16.91,3.88.23,15.37,1.47,17.58-1.4,3.09-4-3.45-19.83-5.91-24.27-16.58-29.92-51.65-37.92-83.67-35.3-34.18,2.8-62.98,30.89-64.5,65.49-.16,3.57-.56,10.02,4.53,10.52,5.47.54,23.03-19.85,27.47-24.52,1.19-1.25,1.36-3.2,2.29-4.21ZM516.44,271.65c35.65,49.74,133.57,35.95,142.16-30.12.58-4.47,1.51-19.12-2.2-21.32-3.98-2.36-19.57-1.44-25.05-1.95-17.98-1.68-36.01-4.86-53.71-8.29-5.68-1.1-27.17-7.39-30.82-6.3-9.47,6.64-16.65,17.49-25.49,24.58-3.62,2.9-16.45,8.85-17.29,11.74-2.34,7.97,7.9,25.37,12.42,31.67ZM481.19,261.87c4.31,2.3,11.36,2.3,12.48-3.35.43-2.16-2.17-13.18-3.09-15.5-3.76-9.46-18.88-.07-15.29,11.3.32,1.01,5,7.07,5.9,7.55ZM674.5,239.43c-2.6.91-6.93,15.8-6.67,18.32.57,5.51,6.93,5.99,11.24,4.25,13.97-5.65,7.15-26.66-4.58-22.57ZM498.56,277.44c-3.71,1.08-12.96,17.52-14.51,21.54s-5.75,16.51-.51,18.09c9.19,2.76,27.67-13.39,29.85-21.78,1.68-6.48-8.02-19.83-14.82-17.85ZM666.5,279.61c-1.17-1.14-3.39-2.43-5.07-2.36-6.73,2.52-14.54,11.87-12.37,19.3,2.02,6.9,21.35,23.2,29.12,20.55,4.77-3.52,2.19-10.52.69-15.36-1.6-5.15-8.66-18.51-12.36-22.14ZM565.34,313.27c-1.66,1.11-1.66,2.55-1.48,4.41,1.32,13.77,34.11,12.94,34.06-.93,0-1.1-.56-3.48-1.58-3.48h-31ZM632.61,358.51c.63,2.76,1.96,5.39,2.24,8.25,1.22,12.23.41,31.77-2.28,43.73-1.39,6.18-5.9,10-2.14,16.69,5,8.89,14.8,2.5,19.39-3.44,16.12-20.86,9.26-66.22-4.97-86.97-3.55-5.17-18.21-21.17-24.48-20.51-2.4.25-10.05,10.43-13,13.04-20.25,17.9-42.34,14.85-58.96-6.09-3.19-4.02-1.61-8.95-9.61-6.48-32.57,10.06-48.83,89.36-22.48,111.58,4.02,3.39,8.34,5.41,12.89,1.83,7.95-6.26-.65-19.7-1.4-28.32-.48-5.45-.62-38.25.78-41.3,1.32-2.89,5.5-4.1,8.26-2.75,9.06,4.42-.7,46.29,6.94,54.08,1.59,1.63,2.54,1.31,4.5,1.5,15.51,1.5,48.52,1.41,64.1-.01,6.09-.56,6.85-2.23,8.01-7.99,2.71-13.41.37-27.12,1.41-40.59.6-7.82,3.17-9.09,10.8-6.22ZM547.15,427.58c-3.23,2.28-5.36,10.21-11.56,13.94-5.52,3.33-14.88,2.61-18.21,6.79-4.47,9.94-11.33,19.6-15.3,29.7-1.54,3.91-3.61,7.18.79,9.74l142.51.56c8.78-.22,9.47-4.69,6.95-12.04-.7-2.03-2.4-3.59-2.91-5.08-2.17-6.33-5.59-22.1-11.66-25.34-4.35-2.32-8.35-1.58-13.4-5.6-7.18-5.72-5.03-12.99-15.99-14.01-14.13-1.31-40.79-1.12-55.07,0-1.76.14-4.79.38-6.16,1.35ZM554.61,543.03c5.01-5,.56-31.17.75-38.78-2.09-4.23-17.59-3.45-21.86-2.07-1.31.85-2.49,5.87-2.67,7.58-.48,4.83-.64,27.91.77,31.24.3.71,1.08,1.92,1.67,2.33,2.19,1.55,19.45,1.58,21.34-.31ZM607.11,503.53c-1.77,2.2-1.73,28.74-1.31,33.28.29,3.19.92,6.73,4.57,7.43,2.37.46,15.58.34,17.46-.5,5.05-2.26,2.94-8.17,2.97-11.93.06-9.58.94-19.16-.41-28.59-1.89-2.93-20.71-2.88-23.28.31ZM525.6,557.52c-4.32.59-10.19,2.66-12,7-2.79,6.68-3.41,16.7,5.72,17.77,4.57.53,29.25.64,32.58-.46,5.27-1.74,6.49-18.18,2.93-22.05-3.34-3.63-23.87-2.98-29.23-2.25ZM611.56,557.48c-7.66,1.69-9.21,23.55,1.76,24.81,6.76.78,21.11.59,28.06.02,2.05-.17,5.57-.44,6.93-2.07,2.69-5.48,2.38-16.31-3.11-19.83-4.81-3.09-27.89-4.19-33.65-2.92Z"/>
      <path class="cls-2" d="M405.19,701.61c-12.57,13.59,1.69,28.34,13.78,35.03,28.24,15.64,70.82,24.88,66.86,68.12-4.58,50.18-70.57,56.79-106.31,34.33-2.18-1.37-11.2-8.29-11.95-10.1-.79-1.93.38-3.73,1.1-5.39.9-2.08,7.88-14.08,9.12-15.62,5.25-6.48,13.73,2.84,19.16,5.68,14.63,7.66,42.46,16.86,51.09-3.7,7.67-18.29-11-29.94-24.84-36.56-24.1-11.52-52.13-20.88-55.35-52.65-5.72-56.51,64.01-66.79,103.12-42.12,4.29,2.71,10.51,5.74,8.34,11.58-.58,1.56-8.56,13.22-10.02,14.99-7.13,8.58-13.16-.01-20.4-3.49-13.03-6.25-32.03-12.73-43.7-.11Z"/>
      <path class="cls-2" d="M542.84,924.77c-.28.99-2.35,2.25-3.53,2.47-3.21.61-24.62.4-26.24-1.21l-1.14-3.32.4-174.45c1.72-3.54,12.18-1.63,15.85-1.84,3.14,1.08,4.26,11.59,7.15,10.84,21.56-22.81,58.13-16,73.87,10.14,27.67,45.95-16.27,101.84-66.36,78.86v78.5ZM542,819.11c3.28,1.29,6.15,2.99,9.63,3.86,46.85,11.73,46.66-54.76,9.74-52.75-7.45.41-18.1,8.11-19.49,15.59-.53,2.88-.76,31.89.12,33.3Z"/>
      <path class="cls-2" d="M321.21,749.62c.31-.56,3.27-3.22,4.1-3.37,3.09-.58,26.57-.18,27.4,1.14l-.35,4.9-81.52,174.48c-1.68.81-23.01.95-25.3.28-1.99-.58-4.55-3.62-3.3-5.79l37.37-79.34-42.34-89.65c-.93-1.96-.46-4.53,1.57-5.52,1.76-.86,22.37-.94,25.56-.56,1.1.13,2.19.02,2.96,1.04l27.99,59.99c4.82-8.69,8.92-17.94,12.99-26.99s8.23-22.35,12.88-30.63Z"/>
      <path class="cls-2" d="M4.19,823.61l13.14-12.07c10.08,6.5,17.67,14.82,30.85,8.56,11.89-5.64,12.17-20.81,12.71-32.29,1.79-38.47-1.59-78.23.16-116.84.75-2.18,2.21-2.48,4.25-2.75,2.87-.38,25.28-.22,26.56.53,1.55.92,2.06,4.21,2.04,5.96-2.35,40.76,2.97,84.71,0,125.09-3.3,44.78-53.22,69.27-87.51,39.43-7.2-6.26-8.8-8.16-2.18-15.62Z"/>
      <path class="cls-2" d="M728.49,830.94c-41.74,55.18-125.94-9.28-83.66-66.17,42.25-56.85,126.3,9.79,83.66,66.17ZM703.48,776.62c-13.36-12.3-38.38-4.68-41.4,13.38-7.54,45,54.67,45.36,49.77,2.76-.58-5.02-4.71-12.78-8.36-16.14Z"/>
      <path class="cls-2" d="M208.5,756.61c51.65,46.9-15.45,126.91-68.13,82.63-55.02-46.24,16.29-129.7,68.13-82.63ZM172.64,770.58c-31.61,2.23-31.43,48.73-3.85,53.24,39.51,6.46,39.33-55.74,3.85-53.24Z"/>
      <path class="cls-2" d="M800.34,772.27c-1.43.88-1.38,1.99-1.55,3.45-1.01,8.6-.81,29.27.01,38.09,1.54,16.57,15.52,6.47,25.92,6.58.93,5.21,8.95,20.14,4.66,23.93-2.88,2.54-17.01,6.05-21.27,6.72-52.33,8.26-36.82-45.81-39.26-78.77-6.46-.62-12.25,2.83-13.06-5.44-.28-2.88-.35-16.71.55-18.56,1.67-3.44,9.23-1.56,12.51-1.99,1.04-1.04-.82-25.01.02-29.48.28-1.49,1.67-3.42,3-4,2.08-.92,19.47-.97,22.52-.57,1.4.18,2.59.23,3.55,1.45,2.56,3.25-.18,24.17.9,30.1.21,1.12.51,1.87,1.5,2.5h24c.17,0,1.76,1.54,1.98,2.02,1.42,3.04,1.51,20.98-1.98,23.98h-24Z"/>
      <path class="cls-1" d="M247.08,260.5c4.23-4.22,10.51,1.85,14.16,1.72s11.46-6.35,14.1-.97c6.29,12.8-20.39,19.56-27.95,7.97-1.57-2.4-2.47-6.56-.3-8.72Z"/>
      <path class="cls-1" d="M287.56,235.47c1.74-.52,3.62-.45,5.29.3,2.81,1.38,2.36,6.88,1.51,9.52-8.76,8.75-15.96-7.1-6.8-9.81Z"/>
      <path class="cls-1" d="M230.56,235.47c8.92-2.65,11.19,9.62,4.57,11.59-8.92,2.65-11.19-9.62-4.57-11.59Z"/>
      <path class="cls-1" d="M590.51,258.52c4.47-.21,5.96,4.33,5.13,8.03-2.69,11.87-27.13,11.57-29.61-1.03-2.15-10.98,10.59-4.01,15.32-4.16,3.84-.12,6.51-2.72,9.16-2.84Z"/>
      <path class="cls-1" d="M612.55,246.95c-8.03,6.42-15.52-11.62-2.34-12.43,6.24,2.01,7.35,8.43,2.34,12.43Z"/>
      <path class="cls-1" d="M556.53,246.95c-9.32,6.88-14.98-14.28-1.23-11.67,5.19.98,4.32,9.39,1.23,11.67Z"/>
    </g>
  </g>
</svg>