<?xml version="1.0" encoding="UTF-8"?>
<svg id="Layer_2" data-name="Layer 2" xmlns="http://www.w3.org/2000/svg" viewBox="0 0 1656.79 561.75">
  <defs>
    <style>
      .cls-1 {
        fill: #e93e6c;
      }

      .cls-2 {
        fill: #2274a5;
      }
    </style>
  </defs>
  <g id="Layer_1-2" data-name="Layer 1">
    <g>
      <g>
        <path class="cls-2" d="M1123.78,265.46c-15.75,17.03,2.12,35.5,17.26,43.88,35.38,19.59,88.72,31.17,83.77,85.34-5.74,62.86-88.41,71.14-133.19,43.01-2.73-1.71-14.04-10.38-14.97-12.66-.99-2.41.47-4.68,1.38-6.76,1.13-2.6,9.87-17.64,11.43-19.57,6.58-8.11,17.2,3.56,24.01,7.12,18.33,9.6,53.2,21.13,64.01-4.63,9.61-22.91-13.78-37.51-31.12-45.8-30.2-14.44-65.31-26.16-69.34-65.96-7.17-70.79,80.19-83.68,129.19-52.76,5.38,3.39,13.17,7.19,10.45,14.51-.73,1.95-10.72,16.57-12.56,18.77-8.93,10.75-16.48-.01-25.55-4.37-16.32-7.84-40.12-15.95-54.74-.13Z"/>
        <path class="cls-2" d="M1296.23,545.03c-.35,1.24-2.95,2.82-4.42,3.1-4.02.77-30.85.51-32.87-1.52l-1.43-4.16.5-218.55c2.16-4.44,15.26-2.04,19.85-2.3,3.93,1.36,5.34,14.52,8.96,13.58,27.01-28.58,72.83-20.04,92.55,12.7,34.67,57.57-20.38,127.59-83.14,98.8v98.35ZM1295.18,412.66c4.11,1.62,7.7,3.75,12.07,4.84,58.7,14.69,58.46-68.61,12.2-66.09-9.34.51-22.68,10.16-24.42,19.54-.67,3.61-.96,39.95.15,41.71Z"/>
        <path class="cls-2" d="M1018.56,325.61c.39-.7,4.09-4.03,5.14-4.23,3.87-.73,33.29-.22,34.33,1.43l-.44,6.14-102.13,218.59c-2.1,1.02-28.82,1.19-31.69.36-2.5-.73-5.7-4.54-4.13-7.25l46.81-99.39-53.04-112.31c-1.17-2.46-.57-5.68,1.96-6.91,2.2-1.07,28.03-1.18,32.02-.7,1.38.17,2.74.02,3.7,1.31l35.06,75.16c6.04-10.88,11.18-22.48,16.27-33.82s10.31-28.01,16.14-38.37Z"/>
        <path class="cls-2" d="M621.39,418.31l16.46-15.12c12.63,8.14,22.13,18.57,38.65,10.72,14.89-7.07,15.25-26.07,15.92-40.46,2.24-48.2-1.99-98.02.2-146.38.94-2.73,2.77-3.1,5.33-3.44,3.6-.48,31.67-.27,33.27.67,1.94,1.15,2.58,5.27,2.55,7.47-2.95,51.06,3.72,106.13-.01,156.71-4.14,56.1-66.68,86.78-109.63,49.4-9.02-7.85-11.03-10.22-2.74-19.57Z"/>
        <path class="cls-2" d="M1528.82,427.48c-52.29,69.13-157.78-11.63-104.81-82.9,52.93-71.23,158.23,12.27,104.81,82.9ZM1497.49,359.44c-16.74-15.41-48.08-5.86-51.87,16.76-9.45,56.38,68.5,56.83,62.35,3.46-.72-6.28-5.9-16.01-10.48-20.22Z"/>
        <path class="cls-2" d="M877.36,334.36c64.71,58.76-19.35,159-85.36,103.52-68.93-57.94,20.41-162.49,85.36-103.52ZM832.44,351.86c-39.61,2.8-39.38,61.05-4.83,66.7,49.5,8.1,49.27-69.84,4.83-66.7Z"/>
        <path class="cls-2" d="M1618.84,353.98c-1.79,1.1-1.73,2.5-1.94,4.32-1.26,10.78-1.01,36.68.02,47.72,1.93,20.76,19.45,8.11,32.47,8.25,1.17,6.53,11.21,25.23,5.84,29.97-3.6,3.18-21.31,7.58-26.65,8.42-65.56,10.35-46.12-57.39-49.19-98.69-8.1-.77-15.34,3.55-16.37-6.81-.36-3.61-.44-20.93.69-23.26,2.09-4.3,11.56-1.95,15.67-2.49,1.3-1.31-1.02-31.33.03-36.93.35-1.87,2.09-4.28,3.75-5.01,2.6-1.15,24.39-1.22,28.22-.71,1.75.23,3.25.29,4.45,1.82,3.21,4.07-.23,30.28,1.13,37.71.26,1.4.64,2.34,1.88,3.13h30.07c.22,0,2.21,1.93,2.49,2.52,1.78,3.81,1.89,26.29-2.49,30.05h-30.07Z"/>
      </g>
      <g>
        <path class="cls-1" d="M321.09,14.71c29.81,25.28,20.25,71-1.09,98.62-3.45,4.47-17.23,15.11-17.19,19.12.03,3.19,3.08,5.65.59,9.5-3.04,4.7-12.99.39-17.41,5.21-4.32,14.78-14.9,29.46-16.4,44.84-3.98,40.69,29.79,59.22,12.69,106.92-3.17,8.86-8.71,17.12-11.08,26.61-1.21,4.83-1.7,20.16-5.39,21.95-3.22,1.56-7.15.04-7.59-3.73-.94-7.95.19-18.91,2.84-26.47,1.25-3.57,3.72-6.8,4.93-10.15,8.95-24.89-16.69,2.87-20.99,6.34-10.26,8.27-25.99,16.92-38.55,20.81-4.62,1.43-21.34,4.35-23.61,6.54-.8.77-1.29,2.02-1.63,3.08-.8,30.71.35,61.47-.16,92.18-.13,8.06.48,19.95-.26,27.05-.78,7.46-3.97,6.13-6.91,10.06-2.47,3.3-2.75,25.5-2.32,30.72.18,2.17.59,5.2,1.29,7.22,1.57,4.55,11.16,8.2,14.29,15.84,2.13,5.21,3.84,24.49,1.87,29.18-.97,2.32-4.98,4.45-7.5,4.75-10.91,1.3-35.9.95-47.17.01-2.04-.17-6.84-.74-8.07-2.29-1.76-2.21-.68-22.73-.81-27.46-.31-11.74.06-23.15,0-34.87-.02-3.99-.48-16.35-1.18-19.54-.34-1.53-1.71-3.79-3.28-4.26-3.3-.99-19.29-1.13-20.09,3.1l-.87,82.05c-.92.84-2,2.07-3.13,2.52-4.41,1.75-31.29,1.01-37.96.75-6.31-.24-13.58-1.26-20.01-1.67-2.09-.99-2.65-3.43-2.95-5.53-1.26-8.77-.65-25.35,5.17-32.34,3.8-4.57,10.65-5.37,12.2-11.35,1.19-4.61,1.09-26.29.46-31.61-.78-6.71-7.24-6.52-9.42-12.25.16-11.3-.28-22.64-.06-33.94.09-4.78,1.81-9.71.93-14.99-.66-3.96-7.3-10.51-9.72-14.78-15.49-27.37-8.53-74.78,11.17-98.82,3.56-4.34,17.01-13.64,16.53-18.33-.36-3.5-6.23-5.5-8.53-7.55-5.74-5.08-14.38-17.39-21.26-18.32-8.76-1.19-15.71,1.94-23.97-4.3-13-9.82-12.66-29.56,1.08-38.54,7.09-4.63,15.62-.61,16.85-11.42,1.5-13.28-.86-20.08,4.83-33.81,17.49-42.26,58.92-52.19,101.06-46.64,28.22,3.71,54.44,26.66,61.78,54.12,2.81,10.52,2.34,21.39,4.83,31.92,6.25,2.9,11.65,3.18,17.35,8.09,14.7,12.7,5.92,38.56-13.18,40.48-5.91.59-12.23-1.06-17.77,2.02-3.02,1.68-13.68,13.36-14.38,16.81-.77,3.76,1.34,4.78,4.81,4.83,15.5.23,43.09-12.2,53.23-24.13,7.71-9.07,8.51-20.56,19.75-26.42,3.37-1.76,7.28-1.08,9.28-4.86,1.89-3.58-1.43-15.4-1.72-20.48-.74-12.86.82-24.29,5.24-36.29,1.61-4.37,12.17-21.84,8-25.01-2.87-2.18-9.98.17-12.32-3.69-2.53-4.16,1.49-8.23-.44-12.76-.48-1.13-11.59-10.39-14.01-13.3-10.4-12.51-20.92-36.99-22.22-53.16-4.31-53.54,59.44-82.19,99.55-48.18ZM310.68,104.49c15.82-22.11,25.95-53.45,5.55-75.98-32.79-36.23-91.42-5.07-81.29,41.72,7.85,36.25,44.56,77.85,75.74,34.27ZM185.49,205.42c2.03-2.35.65-13.62,0-16.96-5.63-29.2-32.3-50.44-61.5-52.51-33.76-2.4-65.15,6-79.62,39.08-2.07,4.73-8.51,18.52.58,19.31,21-1.52,42.03-3.06,62.76-6.86,14.38-2.64,28.33-7.12,42.64-10.05,4.28.28,12.1,11.91,15.55,15.53,3.19,3.35,15.18,17.57,19.6,12.46ZM166.54,264.69c8.02-7.85,17.45-24.09,18.98-35.25.94-6.81-5.49-7.77-9.54-10.75-10.19-7.51-16.76-17.46-25.11-23.88-8.03-6.17-9.98-1.76-17.89.06-26.27,6.03-52.79,9.38-79.66,11.74-12.32,1.08-15.3-2.79-14.59,12.72,1.39,30.42,24.99,59.85,56.16,63.51,24.84,2.91,53.15-.02,71.65-18.13ZM19.61,225.65c-3.34.77-6.85,5.57-7.24,8.84-1.53,12.81,17.5,18.99,17.94,7.43.06-1.6-2.25-11.4-2.91-13.15-1.44-3.82-4.02-3.99-7.79-3.12ZM208.04,244.94c8.41-6.73,3.58-20.62-7.52-19.52-2.86.71-6.27,17.07-5.22,20.13,1.52,4.42,10.07,1.52,12.74-.61ZM259.45,268.52c7.6,3.22,12.37-9.25,12.05-15.24-.59-11.09-15.53-13.61-21.33-4.84-5.62,8.51-.5,9.04,3.86,13.75.91.98,4.75,6.04,5.42,6.33ZM76.66,387.28c1.04,1.15,5.06,2.19,6.78,2.17l81.53-.54,3.77-4.71c1.16-16.11-1.46-34.09-.02-49.96.85-9.37,6.89-6.11,13.59-7.14,16.62-2.57,29.14-6.17,43.62-14.8,7.06-4.2,27.08-19.04,29.11-26.54,1.07-3.94-3.43-9.13-6.19-11.78s-6.42-6.08-10.6-4.97c-2.97.79-12.96,9.77-17.04,12.19-12.71,7.54-30.61,12.95-45.4,13.96-6.94.48-20.23-1.35-25.94.44-3.5,1.1-5.39,7.34-7.54,10.15-14.42,18.81-36.61,20.51-54.19,4.54-10.05-9.13-8.48-19.09-23.98-6.18-23.56,19.61-36.22,75.51-13.7,99.46,3.67,3.9,12.91,4.4,15.64-.47,3.48-6.21-2.2-13.6-2.88-19.83-1.17-10.7-1.46-28.83-.85-39.48.28-4.98,2.42-7.97,7.73-7.01,6.62,4.6,3.21,13.65,3.45,21.1.09,2.68.92,4.95,1.03,7.45.21,4.92-1.03,18.53,2.08,21.95ZM95.39,296.24c-2.07,3.16,3.7,8.56,6.16,10.09,7.78,4.83,29.77,2.75,27.23-10.27l-1.95-.88c-4.67.8-29.7-1.6-31.44,1.06ZM83.68,401.84c-6.12,2.21-7.54,9.32-12.45,12.99-3.71,2.77-11.89,4.14-13.23,8.44l-1.4,29.74c.21,4.36,3.64,7.31,7.99,7.1,30.98-2.21,65.67,2.79,96.2,0,5.58-.51,7.5-2.39,8.01-8.01.94-10.33,1.16-34.26-.02-44.35-.27-2.3-.92-4.21-2.85-5.63l-82.25-.27ZM87.51,511.67c1.11-1.07,1.99-5.98,2.14-7.76.41-4.9.62-26.63-1.5-29.67-1.96-2.8-16.81-2.69-19.98-1.24-2.28,1.04-2.8,3.14-3.07,5.41-.44,3.74-.44,29.41.51,31.56.8,1.81,2.81,2.67,4.64,2.9,3.41.43,14.94,1.05,17.27-1.21ZM158.15,511.64c4.25-3.99,1.24-15.95,1.18-20.95-.06-4.48,3.4-14.23-1.51-17.33-2.2-1.39-15.64-1.58-18.54-1-1.53.31-3.34,4.4-3.51,6.07-.48,4.66-.61,28.18.72,31.34.28.66,1.02,1.81,1.57,2.2,2.09,1.48,18.17,1.49,20.09-.32ZM64.92,525.36c-8.2.68-15.6.56-16.77,10.56-.5,4.26-1.09,10.82,3.72,12.29,3.36,1.03,27.35,1.04,31.66.47,8.2-1.08,7.55-17.88,3.77-21.77-2.91-3-17.76-1.94-22.39-1.55ZM136.97,527.2c-2.22,2.36-2.71,19.32,2.52,21.02,2.67.86,30.17,1.03,33.48.4,8.57-1.63,5.72-18-1.39-21.18-5.48-2.45-23.54-3.14-29.62-2.29-1.07.15-4.36,1.38-5,2.06Z"/>
        <path class="cls-1" d="M480.09,149.67c16.84,18.68,16.8,31.02,19.5,54.47,1.23,10.67,4.97,7.07,12.37,10.24,12.99,5.56,18.24,22.64,10.53,34.54-2.58,3.97-12.19,9.48-12.67,12.86-.58,4.12,4.65,10.7,6.14,14.57,3.16,8.17,6.8,22.8,2.56,30.79-7.61,14.32-25.42-2.5-31.34,1.64-3.99,2.79,4.62,16.75,5.98,20.52,6.74,18.65,9.47,49.41,1.13,67.63-5.32,11.63-14.39,13.17-10.31,27.29,3.31,11.47,10.47,23.47,14.07,34.93,1.65,5.25,3.27,10.52-3.43,12.54-7.43,2.24-20.36-3.36-21.54,6.73-.76,6.48-.66,21.73-.03,28.33.9,9.36,11.95,11.14,15.88,20.87,2.01,4.97,3.31,24.08,1.89,28.84-1.62,5.43-19.77,3.33-24.83,3.44-6.93.15-11.83.24-18.82.05-6.44-.17-12.96.47-19.36-.43-1.11-.78-1.72-5.92-1.86-7.56-1.97-22.94,3.37-53.48-.24-75.17-.17-1.02-.35-3.14-1.34-3.55-6.14-.53-20.56-4.16-21.89,4.31v74.42s-2.15,6.81-2.15,6.81c-1.38,2-14.06.95-17.27,1.12-9.78.52-33.22,2.98-41.73.35-2.1-.65-3.46-1.36-3.91-3.63-.76-3.88-.52-21.07.06-25.34.38-2.8,2.02-6.28,3.69-8.56,5.74-7.82,13.13-5.62,14.16-17.87.38-4.49.73-24.82-.23-28.11-2.23-7.65-23.88-3.14-30.96-4.85-10.71-2.58.34-18.4,3.49-24.9,4.88-10.07,10.72-19.68,15.39-29.87,1.09-7.23-5.71-11.81-8.62-17.67-9.9-19.9-7.26-50.38.15-70.86,1.37-3.79,11-18.46,6.01-20.1-8.15-1.81-15.15,5.48-23.33,4.56-13.43-1.52-9.18-26.33-6.01-35.11,1.25-3.45,7.25-13.15,7.26-15.29.02-4.14-10.99-9.54-13.83-14.37-7.26-12.37-2.1-28.17,11.08-33.68,5.83-2.44,11.84-1.16,13.12-9.49,1.58-10.23-1.17-17.03,2.62-28.48,20.02-60.48,108.43-71.54,148.6-26.98ZM372.57,180.5c1.29-1.4,5.63-3.09,7.63-3.03,28.66,7.84,58.89,14.18,88.68,15.94,3.66.22,14.48,1.38,16.57-1.32,2.91-3.77-3.25-18.69-5.57-22.87-15.62-28.19-48.67-35.73-78.84-33.26-32.21,2.64-59.34,29.11-60.77,61.71-.15,3.36-.53,9.44,4.26,9.92,5.15.51,21.7-18.7,25.89-23.11,1.12-1.18,1.28-3.01,2.15-3.97ZM353.06,255.96c33.59,46.86,125.86,33.87,133.95-28.38.55-4.22,1.42-18.02-2.08-20.09-3.75-2.22-18.44-1.35-23.6-1.84-16.94-1.59-33.93-4.58-50.61-7.81-5.35-1.03-25.6-6.96-29.04-5.94-8.93,6.25-15.69,16.48-24.02,23.16-3.41,2.73-15.5,8.34-16.29,11.06-2.2,7.51,7.45,23.9,11.7,29.84ZM319.84,246.75c4.07,2.17,10.7,2.16,11.76-3.16.41-2.04-2.05-12.42-2.91-14.6-3.54-8.91-17.79-.07-14.41,10.64.3.96,4.71,6.66,5.56,7.11ZM501.99,225.6c-2.45.85-6.53,14.89-6.28,17.27.53,5.19,6.53,5.65,10.59,4,13.16-5.33,6.74-25.12-4.31-21.27ZM336.22,261.41c-3.49,1.02-12.21,16.5-13.68,20.29s-5.42,15.56-.48,17.04c8.66,2.6,26.07-12.62,28.12-20.52,1.59-6.1-7.56-18.68-13.97-16.82ZM494.45,263.46c-1.1-1.07-3.2-2.29-4.78-2.22-6.34,2.37-13.7,11.19-11.65,18.19,1.9,6.51,20.12,21.86,27.44,19.36,4.49-3.32,2.06-9.91.65-14.47-1.51-4.85-8.16-17.44-11.65-20.86ZM399.14,295.17c-1.56,1.04-1.57,2.4-1.4,4.15,1.24,12.97,32.14,12.19,32.09-.88,0-1.04-.53-3.28-1.48-3.28h-29.21ZM462.52,337.8c.59,2.6,1.84,5.08,2.11,7.77,1.15,11.52.38,29.93-2.15,41.21-1.31,5.82-5.56,9.42-2.01,15.72,4.71,8.38,13.94,2.36,18.27-3.24,15.19-19.66,8.73-62.4-4.69-81.95-3.34-4.87-17.16-19.95-23.06-19.33-2.26.24-9.47,9.83-12.25,12.28-19.08,16.87-39.89,13.99-55.56-5.74-3.01-3.78-1.52-8.43-9.06-6.11-30.69,9.48-46.01,84.2-21.18,105.13,3.78,3.19,7.85,5.1,12.15,1.72,7.49-5.89-.61-18.56-1.32-26.69-.45-5.13-.58-36.04.73-38.91,1.25-2.72,5.18-3.86,7.79-2.59,8.54,4.16-.66,43.62,6.54,50.95,1.5,1.53,2.39,1.23,4.24,1.41,14.61,1.42,45.72,1.33,60.4-.01,5.74-.53,6.45-2.1,7.55-7.53,2.55-12.64.35-25.55,1.33-38.25.56-7.37,2.99-8.56,10.18-5.86ZM381.99,402.88c-3.04,2.15-5.05,9.62-10.89,13.13-5.21,3.13-14.02,2.46-17.16,6.4-4.21,9.37-10.67,18.47-14.42,27.98-1.45,3.69-3.4,6.76.74,9.18l134.28.53c8.27-.21,8.93-4.42,6.55-11.34-.66-1.92-2.26-3.38-2.74-4.79-2.05-5.97-5.27-20.83-10.98-23.88-4.1-2.19-7.86-1.49-12.62-5.28-6.77-5.39-4.74-12.24-15.07-13.2-13.31-1.24-38.43-1.05-51.89,0-1.65.13-4.51.35-5.8,1.27ZM389.02,511.67c4.72-4.71.53-29.37.71-36.54-1.97-3.98-16.57-3.25-20.59-1.95-1.23.8-2.35,5.53-2.51,7.14-.45,4.55-.6,26.29.72,29.44.28.66,1.02,1.81,1.57,2.2,2.06,1.46,18.32,1.49,20.11-.29ZM438.49,474.45c-1.67,2.07-1.63,27.08-1.24,31.36.27,3.01.87,6.34,4.3,7,2.23.43,14.68.32,16.45-.47,4.75-2.13,2.77-7.7,2.79-11.25.06-9.03.88-18.05-.38-26.94-1.78-2.76-19.51-2.72-21.93.29ZM361.69,525.32c-4.07.55-9.6,2.5-11.31,6.59-2.63,6.29-3.21,15.74,5.39,16.74,4.31.5,27.56.6,30.7-.44,4.96-1.64,6.12-17.13,2.76-20.78-3.14-3.42-22.49-2.81-27.54-2.12ZM442.68,525.28c-7.22,1.59-8.68,22.19,1.66,23.37,6.37.73,19.89.55,26.44.02,1.93-.16,5.25-.42,6.53-1.95,2.54-5.16,2.24-15.37-2.93-18.69-4.53-2.91-26.28-3.95-31.7-2.75Z"/>
        <path class="cls-1" d="M99.26,245.46c3.98-3.98,9.9,1.75,13.34,1.62s10.8-5.98,13.29-.91c5.92,12.06-19.21,18.43-26.34,7.51-1.48-2.26-2.33-6.18-.29-8.22Z"/>
        <path class="cls-1" d="M137.4,221.87c1.64-.49,3.42-.42,4.99.28,2.65,1.3,2.23,6.49,1.42,8.97-8.25,8.24-15.04-6.69-6.41-9.25Z"/>
        <path class="cls-1" d="M83.69,221.87c8.4-2.5,10.54,9.07,4.3,10.92-8.4,2.5-10.54-9.07-4.3-10.92Z"/>
        <path class="cls-1" d="M422.86,243.58c4.21-.2,5.62,4.08,4.83,7.57-2.53,11.19-25.57,10.9-27.9-.97-2.03-10.34,9.98-3.78,14.43-3.92,3.62-.11,6.14-2.56,8.63-2.68Z"/>
        <path class="cls-1" d="M443.62,232.69c-7.57,6.05-14.62-10.95-2.21-11.71,5.88,1.89,6.93,7.94,2.21,11.71Z"/>
        <path class="cls-1" d="M390.84,232.69c-8.78,6.48-14.12-13.45-1.16-10.99,4.89.93,4.07,8.85,1.16,10.99Z"/>
      </g>
    </g>
  </g>
</svg>